<?xml version="1.0" standalone="no"?>
<!DOCTYPE svg PUBLIC "-//W3C//DTD SVG 20010904//EN"
 "http://www.w3.org/TR/2001/REC-SVG-20010904/DTD/svg10.dtd">
<svg version="1.0" xmlns="http://www.w3.org/2000/svg"
 width="1280.000000pt" height="363.000000pt" viewBox="0 0 1280.000000 363.000000"
 preserveAspectRatio="xMidYMid meet">

<g transform="translate(0.000000,363.000000) scale(0.100000,-0.100000)"
fill="#000000" stroke="none">
<path d="M680 3615 c-354 -67 -595 -289 -661 -610 -39 -186 -15 -448 60 -665
35 -102 174 -436 186 -448 3 -3 2 60 -1 139 -6 136 -8 149 -41 228 -81 192
-123 409 -125 636 -1 208 47 331 181 465 113 112 239 170 412 190 410 47 1133
-259 1580 -668 31 -29 59 -52 61 -52 3 0 20 21 38 47 l34 47 -75 69 c-211 199
-486 377 -734 475 -312 123 -706 187 -915 147z"/>
<path d="M3149 3203 c-12 -27 -36 -88 -54 -138 -18 -49 -74 -198 -125 -330
-50 -132 -129 -339 -175 -460 -46 -121 -118 -310 -159 -419 -42 -109 -76 -204
-76 -210 0 -6 21 -42 46 -80 l46 -69 69 69 69 69 131 335 c71 184 159 409 194
500 35 91 114 293 175 450 62 157 115 295 117 308 5 22 5 22 -116 22 l-122 0
-20 -47z"/>
<path d="M4275 3206 c-49 -21 -91 -63 -114 -111 -19 -40 -21 -63 -21 -202 0
-145 2 -162 24 -209 22 -48 58 -83 116 -115 20 -11 140 -15 610 -19 l585 -5 3
-107 3 -108 -455 0 -455 0 -203 -96 c-112 -52 -207 -100 -213 -105 -6 -6 249
-9 700 -7 698 3 711 3 750 24 22 11 54 40 70 63 l30 43 3 170 c2 118 0 180 -9
202 -20 52 -57 94 -107 123 l-47 28 -580 3 c-530 2 -581 4 -592 19 -8 11 -13
51 -13 110 l0 93 442 0 442 0 226 107 c124 58 227 108 229 110 2 2 -310 3
-695 3 -554 -1 -705 -4 -729 -14z"/>
<path d="M6060 3209 c-14 -6 -36 -20 -48 -32 -52 -49 -52 -44 -52 -521 l0
-445 31 -35 c17 -20 47 -40 67 -46 23 -6 225 -10 526 -10 l488 0 207 103 206
102 -653 5 c-566 4 -654 7 -662 20 -6 9 -10 150 -10 332 0 304 1 318 19 328
13 6 173 10 453 10 l432 0 126 60 c69 33 161 78 205 99 l80 40 -695 0 c-439 0
-704 -4 -720 -10z"/>
<path d="M7750 3209 c-35 -14 -59 -38 -81 -82 -19 -35 -19 -60 -17 -475 l3
-439 29 -37 c59 -78 36 -76 714 -76 402 0 618 4 646 11 54 13 110 59 136 110
19 36 20 60 20 444 0 379 -1 408 -19 443 -24 47 -56 77 -103 97 -32 13 -121
15 -670 14 -393 0 -642 -4 -658 -10z m1203 -180 c14 -6 30 -22 36 -36 14 -31
15 -578 1 -620 -23 -64 -13 -63 -587 -63 -390 0 -522 3 -531 12 -9 9 -12 99
-12 344 l0 333 26 20 c26 21 36 21 535 21 351 0 516 -3 532 -11z"/>
<path d="M9670 3119 l-195 -100 395 6 c217 3 508 8 646 11 l252 6 17 -26 c14
-20 16 -44 13 -120 -1 -52 -8 -100 -14 -106 -8 -8 -188 -11 -622 -10 -335 0
-629 -2 -651 -6 l-41 -7 0 -333 0 -334 100 0 100 0 0 225 0 225 578 0 c456 1
585 4 615 14 59 22 107 64 133 120 22 47 24 63 24 214 0 208 -17 254 -112 303
-35 18 -65 19 -540 18 l-503 0 -195 -100z"/>
<path d="M11240 3110 l0 -110 566 0 566 0 206 107 c114 58 209 108 211 110 2
1 -345 3 -772 3 l-777 0 0 -110z"/>
<path d="M2429 2843 c-68 -108 -158 -251 -200 -317 -67 -105 -75 -124 -65
-142 29 -55 352 -584 356 -584 4 0 416 1061 478 1231 2 5 -91 9 -221 9 l-225
0 -123 -197z"/>
<path d="M3411 2979 c-1 -4 -40 -105 -87 -225 -47 -121 -107 -275 -134 -344
-71 -184 -251 -643 -257 -657 -4 -10 42 -13 214 -13 l218 0 68 108 c37 59 101
159 141 222 142 220 196 308 196 321 0 8 -74 134 -163 280 -164 270 -196 319
-196 308z"/>
<path d="M11252 2772 c-9 -7 -12 -81 -10 -338 l3 -329 563 -3 563 -2 52 28
c29 16 120 64 202 107 83 42 154 81 160 86 5 5 -272 9 -653 9 l-662 0 0 110 0
110 440 0 440 0 215 107 c118 59 215 111 215 115 0 10 -1512 10 -1528 0z"/>
<path d="M515 2696 c-42 -19 -84 -60 -101 -101 -22 -53 -21 -1438 2 -1514 18
-62 69 -122 128 -150 42 -21 51 -21 1227 -21 1124 0 1186 1 1224 19 61 28 105
70 131 126 22 47 24 61 24 248 l0 199 -32 -8 c-18 -3 -51 -12 -73 -18 l-40
-12 -5 -167 c-5 -166 -5 -167 -33 -194 l-27 -28 -1150 -3 c-1257 -3 -1204 -5
-1232 55 -12 23 -13 145 -8 700 l6 672 24 25 23 26 725 2 726 3 7 27 c4 15 10
50 14 77 l7 51 -769 0 c-616 -1 -774 -3 -798 -14z"/>
<path d="M3370 1526 c53 -115 128 -342 156 -471 57 -270 34 -500 -67 -653
-155 -236 -357 -319 -715 -292 -165 12 -241 31 -451 113 -150 59 -266 115
-368 177 l-64 39 -103 -6 c-156 -9 -156 -9 -48 -82 172 -115 317 -180 587
-261 227 -69 325 -83 538 -77 187 5 285 26 404 87 60 30 186 126 232 176 105
115 182 371 182 604 1 186 -50 429 -123 595 -12 28 -26 61 -32 75 -8 22 -10
23 -19 8 -15 -26 -41 -22 -97 15 l-49 34 37 -81z"/>
<path d="M5252 1540 c-44 -18 -88 -60 -110 -103 -22 -43 -22 -52 -22 -458 0
-411 0 -414 23 -451 26 -43 60 -71 106 -86 24 -9 174 -12 504 -12 l469 0 202
106 c110 59 205 110 211 115 5 5 -264 9 -637 9 -580 0 -646 2 -652 16 -3 9 -6
157 -6 329 0 272 2 316 16 329 14 14 70 16 467 17 l452 0 195 99 195 99 -695
0 c-401 0 -705 -4 -718 -9z"/>
<path d="M6830 990 l0 -560 564 0 564 0 203 102 204 103 -643 5 c-557 4 -644
7 -652 20 -6 9 -10 194 -10 453 l0 437 -115 0 -115 0 0 -560z"/>
<path d="M8530 1078 c0 -528 -1 -516 71 -585 67 -64 58 -63 733 -63 573 0 613
2 651 19 47 22 89 64 104 104 7 19 11 195 11 513 l0 484 -110 0 -110 0 0 -439
c0 -386 -2 -441 -16 -455 -14 -14 -77 -16 -549 -16 -472 0 -535 2 -549 16 -14
14 -16 69 -16 455 l0 439 -110 0 -110 0 0 -472z"/>
<path d="M10570 1450 l-195 -99 658 0 657 -1 0 -120 0 -120 -660 0 -660 0 0
-340 0 -340 688 0 687 0 50 24 c100 47 125 98 125 259 0 101 -3 118 -26 165
-17 34 -40 60 -68 79 l-43 29 44 29 c25 17 55 48 69 71 22 38 24 51 24 175 0
120 -2 140 -22 179 -13 24 -40 58 -61 74 l-39 31 -516 2 -517 2 -195 -99z
m1120 -690 l0 -120 -560 0 -560 0 0 120 0 120 560 0 560 0 0 -120z"/>
<path d="M1570 749 c-701 -3 -1278 -7 -1282 -8 -19 -3 -7 -88 16 -122 48 -70
35 -69 605 -69 l511 0 0 26 c0 16 13 39 34 60 l34 34 276 0 c228 0 282 -3 306
-15 34 -18 50 -43 50 -79 l0 -26 518 0 519 0 40 29 c42 31 93 117 93 158 l0
23 -222 -2 c-123 -1 -797 -5 -1498 -9z"/>
</g>
</svg>
